<svg xmlns="http://www.w3.org/2000/svg" viewBox="0 0 160 150">
  <path fill="#FAAF40" d="M114.361 75.843c-16.506 0-29.886-13.381-29.886-29.886 0-16.506 13.381-29.886 29.886-29.886 2.635 0 5.176.375 7.61 1.015-7.057-5.074-15.688-8.095-25.042-8.095-23.743 0-42.99 19.247-42.99 42.99s19.247 42.99 42.99 42.99c19.594 0 36.094-13.121 41.274-31.046-5.457 7.226-14.091 11.918-23.842 11.918z"/>
  <path fill="#42BFEC" d="M79.364 84.2c-.013 0-.025.002-.038.002.005-.253.038-.499.038-.753 0-20.023-16.232-36.255-36.255-36.255S6.854 63.426 6.854 83.449c0 .024.004.046.004.07C-8.848 84.248-21.368 97.175-21.368 113.062c0 16.355 13.258 29.613 29.613 29.613h71.119c16.148 0 29.238-13.09 29.238-29.238-.001-16.147-13.091-29.237-29.238-29.237z"/>
</svg>
